<svg xmlns="http://www.w3.org/2000/svg" xmlns:xlink="http://www.w3.org/1999/xlink" width="800" zoomAndPan="magnify" viewBox="0 0 600 899.99999" height="1200" preserveAspectRatio="xMidYMid meet" version="1.0"><rect x="-60" width="720" fill="#ffffff" y="-89.999999" height="1079.999988" fill-opacity="1"/><rect x="-60" width="720" fill="#ffffff" y="-89.999999" height="1079.999988" fill-opacity="1"/><rect x="-60" width="720" fill="#ffffff" y="-89.999999" height="1079.999988" fill-opacity="1"/><path fill="#f6dccd" d="M 44.253906 392.789062 L 165.726562 360.042969 C 188.523438 353.898438 210.761719 351.167969 230.566406 364.015625 C 252.648438 378.339844 287.628906 405.761719 325.953125 423.8125 C 339.601562 432.664062 344.910156 450.128906 336.777344 464.21875 C 328.640625 478.308594 313.71875 482.699219 296.371094 475.046875 L 309.847656 481.074219 C 325.289062 487.976562 340.695312 489.738281 357.015625 485.300781 L 473.886719 453.503906 C 564.734375 428.792969 557.410156 502.296875 526.972656 511.382812 L 313.242188 575.191406 C 293.585938 581.058594 274.472656 578.535156 256.707031 568.277344 L 133.191406 496.964844 L 76.285156 512.210938 C 65.34375 515.140625 54.027344 508.609375 51.097656 497.667969 L 29.742188 417.96875 C 26.8125 407.035156 33.328125 395.734375 44.253906 392.789062 Z M 44.253906 392.789062 " fill-opacity="1" fill-rule="evenodd"/><path fill="#f1cbbc" d="M 332.691406 469.871094 C 324.128906 479.347656 311.125 481.554688 296.371094 475.046875 C 276.117188 463.441406 255.929688 451.699219 235.714844 440.027344 C 230.296875 436.902344 228.441406 429.976562 231.570312 424.5625 C 234.695312 419.148438 241.621094 417.292969 247.035156 420.417969 Z M 332.691406 469.871094 " fill-opacity="1" fill-rule="evenodd"/><path fill="#f1cbbc" d="M 44.253906 392.789062 L 165.726562 360.042969 C 188.523438 353.898438 210.761719 351.167969 230.566406 364.015625 C 242.378906 371.679688 257.886719 383.089844 275.621094 394.8125 L 40.421875 457.832031 L 29.738281 417.96875 C 26.8125 407.035156 33.328125 395.734375 44.253906 392.789062 Z M 44.253906 392.789062 " fill-opacity="1" fill-rule="evenodd"/><path fill="#d1d1d6" d="M 64.582031 365.757812 L 108.492188 535.449219 C 110.617188 543.652344 105.640625 552.101562 97.433594 554.226562 L 64.769531 562.679688 C 56.5625 564.800781 48.113281 559.828125 45.988281 551.621094 L 2.082031 381.929688 C -0.0429688 373.726562 4.933594 365.277344 13.140625 363.152344 L 45.804688 354.699219 C 54.011719 352.574219 62.460938 357.550781 64.582031 365.757812 Z M 64.582031 365.757812 " fill-opacity="1" fill-rule="evenodd"/><path fill="#b1b1b5" d="M 81.316406 478.746094 L 89.089844 508.78125 L 96.773438 538.480469 C 98.894531 546.667969 93.941406 555.097656 85.765625 557.246094 L 97.4375 554.222656 C 105.640625 552.101562 110.617188 543.648438 108.496094 535.445312 L 100.78125 505.644531 L 85.296875 445.808594 L 69.796875 385.902344 L 64.582031 365.757812 C 62.742188 358.652344 56.15625 353.964844 49.09375 354.222656 L 58.117188 389.101562 L 73.601562 448.9375 L 81.316406 478.738281 Z M 81.316406 478.746094 " fill-opacity="1" fill-rule="evenodd"/><path fill="#685e68" d="M 38.664062 379.328125 C 32.914062 378.65625 27.707031 382.769531 27.03125 388.523438 C 26.359375 394.273438 30.472656 399.480469 36.226562 400.15625 C 41.976562 400.828125 47.183594 396.714844 47.859375 390.960938 C 48.53125 385.210938 44.417969 380.003906 38.664062 379.328125 Z M 38.664062 379.328125 " fill-opacity="1" fill-rule="evenodd"/><path fill="#a79ba7" d="M 398.71875 19.875 C 393.300781 19.875 388.90625 15.480469 388.90625 10.066406 C 388.90625 4.648438 393.300781 0.253906 398.71875 0.253906 C 441.671875 0.253906 481.507812 13.734375 514.222656 36.699219 C 540.757812 55.324219 562.59375 80.222656 577.59375 109.257812 L 578.015625 106.820312 C 578.925781 101.488281 583.988281 97.902344 589.320312 98.8125 C 594.652344 99.722656 598.238281 104.78125 597.328125 110.117188 L 591.136719 145.925781 C 590.226562 151.257812 585.167969 154.84375 579.832031 153.933594 C 578.429688 153.695312 577.144531 153.167969 576.035156 152.425781 L 548.414062 135.1875 C 543.820312 132.328125 542.414062 126.289062 545.273438 121.699219 C 548.128906 117.105469 554.167969 115.699219 558.761719 118.554688 L 561.171875 120.0625 C 547.613281 93.097656 527.523438 69.960938 502.957031 52.71875 C 473.476562 32.023438 437.527344 19.875 398.71875 19.875 Z M 303.996094 22.242188 C 298.664062 21.332031 295.078125 16.273438 295.988281 10.9375 C 296.898438 5.605469 301.960938 2.019531 307.292969 2.929688 L 343.101562 9.121094 C 348.433594 10.03125 352.019531 15.09375 351.109375 20.425781 C 350.871094 21.832031 350.34375 23.113281 349.597656 24.222656 L 332.359375 51.847656 C 329.503906 56.4375 323.464844 57.84375 318.871094 54.988281 C 314.28125 52.132812 312.871094 46.09375 315.730469 41.5 L 317.234375 39.089844 C 290.292969 52.636719 267.171875 72.707031 249.941406 97.238281 C 229.21875 126.734375 217.050781 162.703125 217.050781 201.542969 C 217.050781 206.960938 212.660156 211.351562 207.242188 211.351562 C 201.824219 211.351562 197.433594 206.960938 197.433594 201.542969 C 197.433594 158.558594 210.929688 118.699219 233.921875 85.972656 C 252.542969 59.464844 277.425781 37.652344 306.433594 22.664062 Z M 493.4375 380.839844 C 498.769531 381.75 502.355469 386.808594 501.445312 392.144531 C 500.535156 397.476562 495.476562 401.0625 490.140625 400.152344 L 454.332031 393.960938 C 449 393.050781 445.414062 387.988281 446.324219 382.65625 C 446.5625 381.25 447.089844 379.96875 447.835938 378.859375 L 465.070312 351.238281 C 467.929688 346.644531 473.96875 345.238281 478.558594 348.09375 C 483.152344 350.953125 484.558594 356.992188 481.703125 361.582031 L 480.199219 363.992188 C 507.480469 350.28125 530.835938 329.890625 548.121094 304.96875 C 568.460938 275.640625 580.382812 240 580.382812 201.542969 C 580.382812 196.125 584.773438 191.730469 590.191406 191.730469 C 595.609375 191.730469 600 196.125 600 201.542969 C 600 244.074219 586.78125 283.546875 564.21875 316.082031 C 545.507812 343.058594 520.363281 365.246094 491.003906 380.421875 Z M 219.417969 296.261719 C 218.507812 301.59375 213.449219 305.179688 208.113281 304.269531 C 202.78125 303.359375 199.195312 298.300781 200.105469 292.964844 L 206.296875 257.15625 C 207.207031 251.824219 212.269531 248.238281 217.601562 249.148438 C 219.007812 249.386719 220.289062 249.914062 221.398438 250.65625 L 249.019531 267.894531 C 253.613281 270.753906 255.019531 276.792969 252.164062 281.382812 C 249.304688 285.976562 243.265625 287.382812 238.675781 284.527344 L 236.269531 283.023438 C 249.714844 309.785156 269.570312 332.765625 293.820312 349.9375 C 323.40625 370.890625 359.59375 383.203125 398.714844 383.203125 C 404.132812 383.203125 408.527344 387.597656 408.527344 393.015625 C 408.527344 398.433594 404.132812 402.824219 398.714844 402.824219 C 355.496094 402.824219 315.414062 389.148438 282.554688 365.878906 C 256.304688 347.292969 234.707031 322.582031 219.835938 293.832031 Z M 219.417969 296.261719 " fill-opacity="1" fill-rule="evenodd"/><path fill="#ffe177" d="M 335.15625 149.476562 C 336.753906 156.203125 339.421875 162.628906 343.046875 168.515625 L 337.554688 180.886719 L 352.136719 195.46875 L 364.503906 189.972656 C 370.390625 193.601562 376.820312 196.265625 383.546875 197.867188 L 388.40625 210.488281 L 409.027344 210.488281 L 413.886719 197.863281 C 420.613281 196.261719 427.039062 193.597656 432.925781 189.972656 L 445.296875 195.464844 L 459.878906 180.886719 L 454.386719 168.515625 C 458.011719 162.628906 460.679688 156.203125 462.28125 149.472656 L 474.902344 144.613281 L 474.902344 123.996094 L 462.277344 119.136719 C 460.675781 112.40625 458.007812 105.984375 454.382812 100.097656 L 459.878906 87.726562 L 445.296875 73.144531 L 432.929688 78.636719 C 427.039062 75.011719 420.613281 72.34375 413.882812 70.742188 L 409.027344 58.121094 L 388.40625 58.121094 L 383.546875 70.742188 C 376.816406 72.34375 370.390625 75.011719 364.503906 78.636719 L 352.132812 73.144531 L 337.550781 87.726562 L 343.046875 100.097656 C 339.421875 105.984375 336.753906 112.410156 335.152344 119.136719 L 322.527344 123.996094 L 322.527344 144.617188 Z M 335.15625 149.476562 " fill-opacity="1" fill-rule="evenodd"/><path fill="#ffd064" d="M 440.742188 193.445312 L 445.296875 195.46875 L 459.878906 180.886719 L 454.386719 168.519531 C 458.011719 162.628906 460.679688 156.203125 462.28125 149.476562 L 474.902344 144.617188 L 474.902344 123.996094 L 462.277344 119.136719 C 460.675781 112.410156 458.007812 105.984375 454.382812 100.097656 L 459.878906 87.726562 L 445.296875 73.144531 L 440.742188 75.167969 L 453.300781 87.726562 L 447.804688 100.097656 C 451.429688 105.984375 454.097656 112.410156 455.699219 119.136719 L 468.324219 123.996094 L 468.324219 144.617188 L 455.699219 149.476562 C 454.101562 156.203125 451.433594 162.628906 447.804688 168.519531 L 453.300781 180.886719 Z M 402.449219 210.492188 L 409.027344 210.492188 L 413.886719 197.867188 C 420.613281 196.265625 427.039062 193.597656 432.925781 189.972656 L 429.195312 188.316406 C 423.308594 191.941406 414.035156 196.265625 407.308594 197.867188 Z M 432.929688 78.636719 C 427.042969 75.007812 420.613281 72.34375 413.886719 70.742188 L 409.027344 58.117188 L 402.449219 58.117188 L 407.308594 70.742188 C 414.035156 72.34375 423.3125 76.664062 429.199219 80.292969 Z M 364.507812 78.636719 L 352.136719 73.140625 L 350.113281 75.164062 L 361.65625 80.292969 C 362.59375 79.714844 363.542969 79.164062 364.507812 78.636719 Z M 350.113281 193.445312 L 352.136719 195.46875 L 364.503906 189.972656 C 363.539062 189.445312 362.589844 188.894531 361.652344 188.316406 Z M 350.113281 193.445312 " fill-opacity="1" fill-rule="evenodd"/><path fill="#eceff1" d="M 408.269531 99.492188 C 409.402344 99.808594 410.519531 100.175781 411.617188 100.601562 C 412.71875 101.027344 413.792969 101.503906 414.84375 102.03125 C 415.898438 102.5625 416.921875 103.140625 417.914062 103.773438 C 418.910156 104.402344 419.871094 105.082031 420.800781 105.804688 C 421.730469 106.53125 422.621094 107.296875 423.472656 108.109375 C 424.324219 108.921875 425.136719 109.777344 425.90625 110.667969 C 426.675781 111.558594 427.398438 112.488281 428.074219 113.449219 C 428.753906 114.414062 429.382812 115.40625 429.964844 116.433594 C 430.542969 117.457031 431.074219 118.507812 431.550781 119.585938 C 432.027344 120.660156 432.449219 121.757812 432.820312 122.878906 C 433.1875 123.996094 433.503906 125.128906 433.761719 126.28125 C 434.019531 127.429688 434.21875 128.589844 434.363281 129.757812 C 434.507812 130.925781 434.59375 132.097656 434.621094 133.277344 C 434.648438 134.453125 434.621094 135.628906 434.535156 136.804688 C 434.449219 137.980469 434.304688 139.148438 434.101562 140.308594 C 433.898438 141.46875 433.640625 142.617188 433.328125 143.75 C 433.011719 144.886719 432.644531 146.003906 432.21875 147.101562 C 431.796875 148.199219 431.320312 149.277344 430.789062 150.328125 C 430.257812 151.378906 429.679688 152.402344 429.050781 153.398438 C 428.417969 154.394531 427.742188 155.355469 427.015625 156.285156 C 426.292969 157.210938 425.523438 158.101562 424.710938 158.957031 C 423.898438 159.808594 423.046875 160.621094 422.152344 161.390625 C 421.261719 162.15625 420.335938 162.882812 419.371094 163.558594 C 418.40625 164.238281 417.414062 164.867188 416.390625 165.445312 C 415.363281 166.027344 414.3125 166.554688 413.238281 167.035156 C 412.160156 167.511719 411.0625 167.933594 409.941406 168.304688 C 408.824219 168.671875 407.691406 168.984375 406.542969 169.242188 C 405.390625 169.5 404.234375 169.703125 403.0625 169.847656 C 401.894531 169.988281 400.722656 170.078125 399.542969 170.105469 C 398.367188 170.132812 397.191406 170.105469 396.015625 170.019531 C 394.839844 169.929688 393.675781 169.785156 392.515625 169.585938 C 391.351562 169.382812 390.207031 169.125 389.070312 168.8125 C 387.933594 168.496094 386.816406 168.128906 385.71875 167.703125 C 384.621094 167.277344 383.546875 166.800781 382.492188 166.273438 C 381.441406 165.742188 380.417969 165.164062 379.421875 164.53125 C 378.429688 163.902344 377.464844 163.222656 376.539062 162.5 C 375.609375 161.773438 374.71875 161.007812 373.867188 160.195312 C 373.011719 159.382812 372.203125 158.53125 371.433594 157.636719 C 370.664062 156.746094 369.941406 155.816406 369.261719 154.855469 C 368.582031 153.890625 367.953125 152.898438 367.375 151.871094 C 366.792969 150.847656 366.265625 149.796875 365.789062 148.71875 C 365.3125 147.644531 364.886719 146.546875 364.519531 145.425781 C 364.148438 144.308594 363.835938 143.175781 363.578125 142.023438 C 363.320312 140.875 363.121094 139.714844 362.976562 138.546875 C 362.832031 137.378906 362.746094 136.207031 362.714844 135.027344 C 362.6875 133.851562 362.71875 132.675781 362.804688 131.5 C 362.890625 130.324219 363.035156 129.15625 363.238281 127.996094 C 363.4375 126.835938 363.695312 125.6875 364.011719 124.554688 C 364.324219 123.417969 364.695312 122.300781 365.117188 121.203125 C 365.542969 120.105469 366.019531 119.027344 366.550781 117.976562 C 367.078125 116.925781 367.660156 115.902344 368.289062 114.90625 C 368.917969 113.910156 369.597656 112.949219 370.320312 112.019531 C 371.046875 111.09375 371.816406 110.203125 372.628906 109.347656 C 373.441406 108.496094 374.292969 107.683594 375.183594 106.917969 C 376.078125 106.148438 377.003906 105.421875 377.96875 104.746094 C 378.929688 104.066406 379.925781 103.4375 380.949219 102.859375 C 381.972656 102.277344 383.023438 101.75 384.101562 101.273438 C 385.179688 100.792969 386.277344 100.371094 387.394531 100.003906 C 388.511719 99.632812 389.648438 99.320312 390.796875 99.0625 C 391.945312 98.804688 393.105469 98.601562 394.273438 98.457031 C 395.441406 98.316406 396.617188 98.230469 397.792969 98.199219 C 398.972656 98.171875 400.148438 98.199219 401.320312 98.289062 C 402.496094 98.375 403.664062 98.519531 404.824219 98.71875 C 405.984375 98.921875 407.132812 99.179688 408.269531 99.492188 Z M 408.269531 99.492188 " fill-opacity="1" fill-rule="nonzero"/><path fill="#d1d1d6" d="M 362.753906 134.304688 C 362.753906 114.441406 378.851562 98.339844 398.71875 98.339844 C 399.566406 98.339844 400.402344 98.375 401.234375 98.429688 C 382.546875 99.722656 367.792969 115.289062 367.792969 134.304688 C 367.792969 153.320312 382.546875 168.886719 401.234375 170.179688 C 400.402344 170.234375 399.566406 170.269531 398.71875 170.269531 C 378.851562 170.269531 362.753906 154.167969 362.753906 134.304688 Z M 362.753906 134.304688 " fill-opacity="1" fill-rule="evenodd"/><path fill="#fe646f" d="M 294.390625 227.980469 L 330.046875 227.980469 C 334.09375 227.980469 337.402344 231.289062 337.402344 235.335938 L 337.402344 321.375 C 337.402344 325.421875 334.09375 328.730469 330.046875 328.730469 L 294.390625 328.730469 C 290.34375 328.730469 287.03125 325.421875 287.03125 321.375 L 287.03125 235.335938 C 287.03125 231.289062 290.34375 227.980469 294.390625 227.980469 Z M 294.390625 227.980469 " fill-opacity="1" fill-rule="evenodd"/><path fill="#fd4755" d="M 320.148438 227.980469 L 330.046875 227.980469 C 334.09375 227.980469 337.402344 231.289062 337.402344 235.335938 L 337.402344 321.375 C 337.402344 325.421875 334.09375 328.730469 330.046875 328.730469 L 320.148438 328.730469 C 324.195312 328.730469 327.503906 325.421875 327.503906 321.375 L 327.503906 235.335938 C 327.503906 231.289062 324.195312 227.980469 320.148438 227.980469 Z M 320.148438 227.980469 " fill-opacity="1" fill-rule="evenodd"/><path fill="#6cf5c2" d="M 417.203125 240.242188 L 381.546875 240.242188 C 377.503906 240.242188 374.191406 243.550781 374.191406 247.597656 L 374.191406 333.636719 C 374.191406 337.683594 377.503906 340.992188 381.546875 340.992188 L 417.203125 340.992188 C 421.25 340.992188 424.5625 337.683594 424.5625 333.636719 L 424.5625 247.597656 C 424.5625 243.550781 421.25 240.242188 417.203125 240.242188 Z M 417.203125 240.242188 " fill-opacity="1" fill-rule="evenodd"/><path fill="#00e499" d="M 407.308594 240.242188 L 417.203125 240.242188 C 421.25 240.242188 424.5625 243.550781 424.5625 247.597656 L 424.5625 333.636719 C 424.5625 337.683594 421.25 340.992188 417.203125 340.992188 L 407.308594 340.992188 C 411.355469 340.992188 414.664062 337.683594 414.664062 333.636719 L 414.664062 247.597656 C 414.664062 243.550781 411.355469 240.242188 407.308594 240.242188 Z M 407.308594 240.242188 " fill-opacity="1" fill-rule="evenodd"/><path fill="#8ac9fe" d="M 503.042969 227.980469 L 467.386719 227.980469 C 463.339844 227.980469 460.03125 231.289062 460.03125 235.335938 L 460.03125 321.375 C 460.03125 325.421875 463.339844 328.730469 467.386719 328.730469 L 503.042969 328.730469 C 507.089844 328.730469 510.402344 325.421875 510.402344 321.375 L 510.402344 235.335938 C 510.402344 231.289062 507.089844 227.980469 503.042969 227.980469 Z M 503.042969 227.980469 " fill-opacity="1" fill-rule="evenodd"/><path fill="#60b7ff" d="M 493.148438 227.980469 L 503.042969 227.980469 C 507.089844 227.980469 510.402344 231.289062 510.402344 235.335938 L 510.402344 321.375 C 510.402344 325.421875 507.089844 328.730469 503.042969 328.730469 L 493.148438 328.730469 C 497.195312 328.730469 500.503906 325.421875 500.503906 321.375 L 500.503906 235.335938 C 500.503906 231.289062 497.195312 227.980469 493.148438 227.980469 Z M 493.148438 227.980469 " fill-opacity="1" fill-rule="evenodd"/></svg>