<svg xmlns="http://www.w3.org/2000/svg" xmlns:xlink="http://www.w3.org/1999/xlink" width="800" zoomAndPan="magnify" viewBox="0 0 600 899.99999" height="1200" preserveAspectRatio="xMidYMid meet" version="1.0"><rect x="-60" width="720" fill="#ffffff" y="-89.999999" height="1079.999988" fill-opacity="1"/><rect x="-60" width="720" fill="#ffffff" y="-89.999999" height="1079.999988" fill-opacity="1"/><rect x="-60" width="720" fill="#ffffff" y="-89.999999" height="1079.999988" fill-opacity="1"/><path fill="#000000" d="M 497.59375 511.257812 L 486.023438 511.257812 C 482.394531 511.257812 479.472656 508.324219 479.472656 504.710938 C 479.472656 501.09375 482.390625 498.160156 486.019531 498.160156 L 497.59375 498.160156 C 546.710938 498.160156 586.65625 458.210938 586.65625 409.09375 C 586.65625 373.089844 565.195312 340.835938 531.984375 326.917969 C 529.230469 325.761719 527.605469 322.867188 528.042969 319.90625 C 528.699219 315.527344 529.023438 311.050781 529.023438 306.617188 C 529.027344 257.511719 489.078125 217.554688 439.960938 217.554688 C 423.738281 217.550781 407.855469 221.960938 394.035156 230.296875 C 392.332031 231.320312 390.253906 231.523438 388.371094 230.828125 C 386.503906 230.128906 385.058594 228.632812 384.429688 226.734375 C 372.25 189.597656 339.023438 165.609375 299.796875 165.609375 C 260.574219 165.609375 227.363281 189.597656 215.167969 226.734375 C 214.539062 228.628906 213.09375 230.132812 211.222656 230.828125 C 209.355469 231.523438 207.265625 231.320312 205.5625 230.296875 C 191.742188 221.957031 175.859375 217.554688 159.636719 217.554688 C 110.535156 217.550781 70.570312 257.515625 70.570312 306.617188 C 70.574219 311.050781 70.914062 315.527344 71.554688 319.90625 C 72.003906 322.867188 70.378906 325.761719 67.609375 326.917969 C 34.402344 340.835938 12.941406 373.089844 12.941406 409.09375 C 12.941406 458.210938 52.902344 498.160156 102.007812 498.160156 L 113.589844 498.160156 C 117.207031 498.160156 120.140625 501.09375 120.140625 504.710938 C 120.140625 508.324219 117.207031 511.257812 113.589844 511.257812 L 102.007812 511.257812 C 45.671875 511.257812 -0.15625 465.429688 -0.15625 409.09375 C -0.15625 369.472656 22.503906 333.796875 57.992188 316.878906 C 57.652344 313.464844 57.472656 310.042969 57.472656 306.617188 C 57.476562 250.28125 103.300781 204.453125 159.636719 204.453125 C 175.613281 204.453125 191.289062 208.179688 205.4375 215.289062 C 221.226562 176.894531 257.460938 152.511719 299.796875 152.511719 C 342.136719 152.511719 378.386719 176.894531 394.15625 215.289062 C 408.320312 208.179688 423.996094 204.453125 439.960938 204.453125 C 496.296875 204.453125 542.121094 250.285156 542.121094 306.617188 C 542.121094 310.042969 541.960938 313.46875 541.617188 316.878906 C 577.09375 333.792969 599.753906 369.472656 599.753906 409.09375 C 599.753906 465.429688 553.925781 511.257812 497.59375 511.257812 Z M 497.59375 511.257812 " fill-opacity="1" fill-rule="evenodd"/><path fill="#000000" d="M 146.773438 614.433594 C 132.089844 614.433594 120.140625 626.386719 120.140625 641.078125 L 120.140625 708.136719 C 120.140625 722.832031 132.089844 734.769531 146.773438 734.769531 L 452.824219 734.769531 C 467.519531 734.769531 479.472656 722.832031 479.472656 708.136719 L 479.472656 641.078125 C 479.472656 626.382812 467.519531 614.433594 452.824219 614.433594 Z M 452.824219 747.867188 L 146.773438 747.867188 C 124.863281 747.867188 107.042969 730.050781 107.042969 708.136719 L 107.042969 641.078125 C 107.042969 619.167969 124.859375 601.335938 146.773438 601.335938 L 452.824219 601.335938 C 474.738281 601.335938 492.570312 619.167969 492.570312 641.078125 L 492.570312 708.136719 C 492.570312 730.050781 474.738281 747.867188 452.824219 747.867188 Z M 452.824219 747.867188 " fill-opacity="1" fill-rule="evenodd"/><path fill="#000000" d="M 146.773438 444.542969 C 132.089844 444.542969 120.140625 456.496094 120.140625 471.175781 L 120.140625 538.246094 C 120.140625 552.925781 132.089844 564.878906 146.773438 564.878906 L 452.824219 564.878906 C 467.519531 564.878906 479.472656 552.925781 479.472656 538.246094 L 479.472656 471.171875 C 479.472656 456.492188 467.519531 444.542969 452.824219 444.542969 Z M 452.824219 577.976562 L 146.773438 577.976562 C 124.863281 577.976562 107.042969 560.160156 107.042969 538.246094 L 107.042969 471.171875 C 107.042969 449.261719 124.859375 431.445312 146.773438 431.445312 L 452.824219 431.445312 C 474.738281 431.445312 492.570312 449.261719 492.570312 471.175781 L 492.570312 538.246094 C 492.570312 560.160156 474.738281 577.976562 452.824219 577.976562 Z M 452.824219 577.976562 " fill-opacity="1" fill-rule="evenodd"/><path fill="#000000" d="M 177.675781 659.472656 C 169.324219 659.472656 162.53125 666.253906 162.53125 674.601562 C 162.53125 682.953125 169.324219 689.746094 177.675781 689.746094 C 186.023438 689.746094 192.820312 682.953125 192.820312 674.601562 C 192.820312 666.253906 186.023438 659.472656 177.675781 659.472656 Z M 177.675781 702.84375 C 162.105469 702.84375 149.433594 690.183594 149.433594 674.601562 C 149.433594 659.035156 162.105469 646.375 177.675781 646.375 C 193.242188 646.375 205.917969 659.035156 205.917969 674.601562 C 205.917969 690.183594 193.242188 702.84375 177.675781 702.84375 Z M 177.675781 702.84375 " fill-opacity="1" fill-rule="evenodd"/><path fill="#000000" d="M 253.21875 659.472656 C 244.871094 659.472656 238.089844 666.253906 238.089844 674.601562 C 238.089844 682.953125 244.871094 689.746094 253.21875 689.746094 C 261.570312 689.746094 268.363281 682.953125 268.363281 674.601562 C 268.367188 666.253906 261.570312 659.472656 253.21875 659.472656 Z M 253.21875 702.84375 C 237.652344 702.84375 224.992188 690.183594 224.992188 674.601562 C 224.992188 659.035156 237.652344 646.375 253.21875 646.375 C 268.800781 646.375 281.460938 659.035156 281.460938 674.601562 C 281.460938 690.183594 268.800781 702.84375 253.21875 702.84375 Z M 253.21875 702.84375 " fill-opacity="1" fill-rule="evenodd"/><path fill="#000000" d="M 435.144531 659.140625 L 315.613281 659.140625 C 311.996094 659.140625 309.0625 656.222656 309.0625 652.59375 C 309.0625 648.976562 311.996094 646.042969 315.609375 646.042969 L 435.144531 646.042969 C 438.757812 646.042969 441.691406 648.976562 441.691406 652.59375 C 441.695312 656.222656 438.757812 659.140625 435.144531 659.140625 Z M 435.144531 659.140625 " fill-opacity="1" fill-rule="evenodd"/><path fill="#000000" d="M 435.144531 703.15625 L 315.613281 703.15625 C 311.996094 703.15625 309.0625 700.222656 309.0625 696.609375 C 309.0625 692.992188 311.996094 690.058594 315.609375 690.058594 L 435.144531 690.058594 C 438.757812 690.058594 441.691406 692.992188 441.691406 696.609375 C 441.695312 700.222656 438.757812 703.15625 435.144531 703.15625 Z M 435.144531 703.15625 " fill-opacity="1" fill-rule="evenodd"/><path fill="#000000" d="M 181.921875 489.566406 C 173.570312 489.566406 166.773438 496.359375 166.773438 504.710938 C 166.773438 513.058594 173.566406 519.855469 181.917969 519.855469 C 190.269531 519.855469 197.046875 513.0625 197.046875 504.710938 C 197.046875 496.359375 190.265625 489.566406 181.921875 489.566406 Z M 181.921875 532.953125 C 166.339844 532.953125 153.675781 520.277344 153.675781 504.710938 C 153.679688 489.144531 166.335938 476.46875 181.917969 476.46875 C 197.488281 476.46875 210.144531 489.144531 210.144531 504.710938 C 210.148438 520.277344 197.484375 532.953125 181.921875 532.953125 Z M 181.921875 532.953125 " fill-opacity="1" fill-rule="evenodd"/><path fill="#000000" d="M 257.460938 489.566406 C 249.113281 489.566406 242.316406 496.359375 242.316406 504.710938 C 242.320312 513.058594 249.113281 519.855469 257.460938 519.855469 C 265.8125 519.855469 272.605469 513.0625 272.605469 504.710938 C 272.609375 496.359375 265.8125 489.566406 257.460938 489.566406 Z M 257.460938 532.953125 C 241.894531 532.953125 229.21875 520.277344 229.21875 504.710938 C 229.222656 489.144531 241.894531 476.46875 257.460938 476.46875 C 273.03125 476.46875 285.703125 489.144531 285.703125 504.710938 C 285.703125 520.277344 273.03125 532.953125 257.460938 532.953125 Z M 257.460938 532.953125 " fill-opacity="1" fill-rule="evenodd"/><path fill="#000000" d="M 439.375 489.25 L 319.859375 489.25 C 316.242188 489.25 313.308594 486.320312 313.308594 482.703125 C 313.308594 479.085938 316.242188 476.15625 319.855469 476.15625 L 439.375 476.152344 C 443.003906 476.152344 445.921875 479.089844 445.921875 482.703125 C 445.925781 486.316406 443.003906 489.253906 439.375 489.25 Z M 439.375 489.25 " fill-opacity="1" fill-rule="evenodd"/><path fill="#000000" d="M 439.375 533.265625 L 319.859375 533.265625 C 316.242188 533.265625 313.308594 530.335938 313.308594 526.71875 C 313.308594 523.101562 316.242188 520.167969 319.855469 520.167969 L 439.375 520.167969 C 443.003906 520.167969 445.921875 523.101562 445.921875 526.71875 C 445.925781 530.335938 443.003906 533.265625 439.375 533.265625 Z M 439.375 533.265625 " fill-opacity="1" fill-rule="evenodd"/><path fill="#000000" d="M 198.699219 614.433594 C 195.085938 614.433594 192.152344 611.5 192.152344 607.886719 L 192.152344 571.429688 C 192.152344 567.8125 195.082031 564.878906 198.699219 564.878906 C 202.316406 564.878906 205.25 567.8125 205.25 571.429688 L 205.25 607.882812 C 205.25 611.5 202.316406 614.433594 198.699219 614.433594 Z M 198.699219 614.433594 " fill-opacity="1" fill-rule="evenodd"/><path fill="#000000" d="M 400.910156 614.433594 C 397.28125 614.433594 394.363281 611.5 394.363281 607.886719 L 394.363281 571.429688 C 394.363281 567.8125 397.28125 564.878906 400.910156 564.878906 C 404.527344 564.878906 407.460938 567.8125 407.460938 571.429688 L 407.460938 607.882812 C 407.460938 611.5 404.527344 614.433594 400.910156 614.433594 Z M 400.910156 614.433594 " fill-opacity="1" fill-rule="evenodd"/><path fill="#000000" d="M 224.308594 444.542969 C 220.695312 444.542969 217.757812 441.609375 217.757812 437.992188 L 217.761719 386.855469 L 186.652344 386.855469 C 183.039062 386.855469 180.101562 383.925781 180.101562 380.308594 C 180.105469 376.679688 183.035156 373.757812 186.652344 373.757812 L 224.308594 373.757812 C 227.941406 373.757812 230.855469 376.679688 230.855469 380.308594 L 230.859375 437.992188 C 230.859375 441.609375 227.9375 444.542969 224.308594 444.542969 Z M 224.308594 444.542969 " fill-opacity="1" fill-rule="evenodd"/><path fill="#000000" d="M 277.945312 444.542969 C 274.3125 444.542969 271.394531 441.609375 271.394531 437.992188 L 271.394531 352.582031 L 257.613281 328.722656 C 255.796875 325.597656 256.875 321.585938 260 319.785156 C 263.136719 317.96875 267.148438 319.046875 268.949219 322.171875 L 283.605469 347.546875 C 284.179688 348.542969 284.492188 349.679688 284.492188 350.824219 L 284.492188 437.992188 C 284.492188 441.609375 281.558594 444.542969 277.945312 444.542969 Z M 277.945312 444.542969 " fill-opacity="1" fill-rule="evenodd"/><path fill="#000000" d="M 326.242188 444.542969 C 322.613281 444.542969 319.691406 441.609375 319.691406 437.992188 L 319.695312 359.828125 C 319.695312 358.09375 320.375 356.433594 321.601562 355.203125 L 337.472656 339.335938 C 340.035156 336.769531 344.179688 336.769531 346.734375 339.335938 C 349.285156 341.886719 349.285156 346.035156 346.734375 348.601562 L 332.789062 362.542969 L 332.789062 437.992188 C 332.789062 441.609375 329.855469 444.542969 326.242188 444.542969 Z M 326.242188 444.542969 " fill-opacity="1" fill-rule="evenodd"/><path fill="#000000" d="M 379.863281 444.542969 C 376.246094 444.542969 373.308594 441.609375 373.308594 437.992188 L 373.308594 377.851562 C 373.308594 374.222656 376.242188 371.289062 379.859375 371.289062 L 410.148438 371.289062 C 413.765625 371.289062 416.695312 374.222656 416.695312 377.851562 C 416.699219 381.46875 413.761719 384.386719 410.148438 384.386719 L 386.410156 384.386719 L 386.410156 437.992188 C 386.410156 441.609375 383.472656 444.542969 379.863281 444.542969 Z M 379.863281 444.542969 " fill-opacity="1" fill-rule="evenodd"/><path fill="#000000" d="M 167.414062 367.621094 C 160.417969 367.621094 154.726562 373.308594 154.726562 380.308594 C 154.726562 387.292969 160.414062 392.996094 167.414062 392.996094 C 174.414062 392.996094 180.101562 387.292969 180.101562 380.308594 C 180.105469 373.308594 174.414062 367.621094 167.414062 367.621094 Z M 167.414062 406.09375 C 153.199219 406.09375 141.628906 394.523438 141.628906 380.308594 C 141.628906 366.078125 153.199219 354.523438 167.414062 354.523438 C 181.632812 354.519531 193.199219 366.078125 193.199219 380.308594 C 193.203125 394.523438 181.632812 406.09375 167.414062 406.09375 Z M 167.414062 406.09375 " fill-opacity="1" fill-rule="evenodd"/><path fill="#000000" d="M 253.65625 296.097656 C 246.671875 296.097656 240.96875 301.789062 240.96875 308.789062 C 240.96875 315.785156 246.671875 321.476562 253.65625 321.476562 C 260.65625 321.476562 266.359375 315.789062 266.359375 308.789062 C 266.359375 301.789062 260.65625 296.097656 253.65625 296.097656 Z M 253.65625 334.574219 C 239.441406 334.574219 227.871094 323.003906 227.871094 308.789062 C 227.871094 294.570312 239.441406 283 253.65625 283 C 267.886719 283 279.441406 294.570312 279.441406 308.789062 C 279.441406 323.003906 267.886719 334.574219 253.65625 334.574219 Z M 253.65625 334.574219 " fill-opacity="1" fill-rule="evenodd"/><path fill="#000000" d="M 355.710938 317.671875 C 348.714844 317.671875 343.023438 323.375 343.023438 330.359375 C 343.023438 337.355469 348.710938 343.046875 355.710938 343.046875 C 362.695312 343.046875 368.398438 337.359375 368.398438 330.359375 C 368.398438 323.371094 362.695312 317.671875 355.710938 317.671875 Z M 355.710938 356.144531 C 341.480469 356.144531 329.925781 344.589844 329.925781 330.359375 C 329.925781 316.140625 341.480469 304.574219 355.710938 304.574219 C 369.929688 304.570312 381.496094 316.140625 381.496094 330.359375 C 381.5 344.589844 369.925781 356.144531 355.710938 356.144531 Z M 355.710938 356.144531 " fill-opacity="1" fill-rule="evenodd"/><path fill="#000000" d="M 429.386719 365.148438 C 422.386719 365.148438 416.695312 370.851562 416.695312 377.851562 C 416.699219 384.835938 422.386719 390.539062 429.382812 390.539062 C 436.386719 390.539062 442.074219 384.835938 442.074219 377.851562 C 442.074219 370.851562 436.382812 365.152344 429.386719 365.148438 Z M 429.386719 403.636719 C 415.167969 403.636719 403.597656 392.070312 403.597656 377.851562 C 403.601562 363.621094 415.167969 352.050781 429.382812 352.050781 C 443.601562 352.050781 455.171875 363.621094 455.171875 377.851562 C 455.171875 392.070312 443.601562 403.636719 429.386719 403.636719 Z M 429.386719 403.636719 " fill-opacity="1" fill-rule="evenodd"/><path fill="#90caf9" d="M 329.925781 330.359375 C 329.925781 316.140625 341.480469 304.574219 355.710938 304.574219 C 369.929688 304.570312 381.496094 316.140625 381.496094 330.359375 C 381.5 344.589844 369.925781 356.144531 355.710938 356.144531 C 350.96875 356.144531 346.527344 354.863281 342.707031 352.625 L 332.789062 362.542969 L 332.789062 431.445312 L 373.308594 431.445312 L 373.3125 377.851562 C 373.3125 374.222656 376.242188 371.289062 379.859375 371.289062 L 404.445312 371.289062 C 407.355469 360.226562 417.433594 352.050781 429.386719 352.050781 C 443.605469 352.050781 455.171875 363.621094 455.171875 377.851562 C 455.175781 392.070312 443.601562 403.636719 429.386719 403.636719 C 417.429688 403.636719 407.339844 395.449219 404.4375 384.386719 L 386.410156 384.386719 L 386.410156 431.445312 L 452.824219 431.445312 C 474.738281 431.445312 492.570312 449.261719 492.570312 471.175781 L 492.570312 498.160156 L 497.59375 498.160156 C 546.710938 498.160156 586.65625 458.214844 586.65625 409.097656 C 586.65625 373.089844 565.195312 340.835938 531.988281 326.921875 C 529.230469 325.761719 527.605469 322.867188 528.042969 319.90625 C 528.699219 315.527344 529.023438 311.054688 529.023438 306.617188 C 529.027344 257.515625 489.078125 217.554688 439.960938 217.554688 C 423.738281 217.550781 407.855469 221.960938 394.035156 230.296875 C 392.332031 231.320312 390.257812 231.523438 388.375 230.828125 C 386.503906 230.132812 385.058594 228.632812 384.429688 226.734375 C 372.25 189.597656 339.023438 165.613281 299.796875 165.613281 C 260.574219 165.613281 227.363281 189.597656 215.167969 226.734375 C 214.539062 228.632812 213.09375 230.132812 211.222656 230.828125 C 209.355469 231.523438 207.265625 231.320312 205.5625 230.296875 C 191.742188 221.960938 175.859375 217.554688 159.636719 217.554688 C 110.535156 217.550781 70.574219 257.515625 70.574219 306.617188 C 70.574219 311.050781 70.914062 315.527344 71.554688 319.90625 C 72.003906 322.867188 70.378906 325.761719 67.609375 326.921875 C 34.402344 340.835938 12.941406 373.089844 12.941406 409.097656 C 12.941406 458.210938 52.902344 498.160156 102.007812 498.160156 L 107.042969 498.160156 L 107.042969 471.171875 C 107.042969 449.261719 124.859375 431.445312 146.773438 431.445312 L 217.757812 431.445312 L 217.761719 386.855469 L 192.359375 386.855469 C 189.453125 397.914062 179.371094 406.09375 167.414062 406.09375 C 153.199219 406.09375 141.628906 394.523438 141.628906 380.308594 C 141.628906 366.078125 153.199219 354.523438 167.414062 354.523438 C 179.371094 354.519531 189.453125 362.695312 192.359375 373.757812 L 224.308594 373.757812 C 227.941406 373.757812 230.855469 376.679688 230.855469 380.308594 L 230.859375 431.445312 L 271.394531 431.445312 L 271.394531 352.582031 L 260.464844 333.664062 C 258.296875 334.257812 256.011719 334.574219 253.65625 334.574219 C 239.441406 334.574219 227.871094 323.003906 227.871094 308.789062 C 227.871094 294.570312 239.441406 283 253.65625 283 C 267.886719 283 279.441406 294.570312 279.441406 308.789062 C 279.441406 315.941406 276.515625 322.425781 271.796875 327.101562 L 283.605469 347.546875 C 284.179688 348.542969 284.492188 349.679688 284.492188 350.824219 L 284.492188 431.445312 L 319.691406 431.445312 L 319.695312 359.828125 C 319.695312 358.09375 320.375 356.433594 321.601562 355.203125 L 333.445312 343.363281 C 331.207031 339.542969 329.925781 335.101562 329.925781 330.359375 Z M 329.925781 330.359375 " fill-opacity="1" fill-rule="evenodd"/><path fill="#eceff1" d="M 180.101562 380.308594 C 180.105469 373.308594 174.414062 367.621094 167.414062 367.621094 C 160.417969 367.621094 154.726562 373.308594 154.726562 380.308594 C 154.726562 387.292969 160.414062 392.996094 167.414062 392.996094 C 174.414062 392.996094 180.101562 387.292969 180.101562 380.308594 Z M 180.101562 380.308594 " fill-opacity="1" fill-rule="evenodd"/><path fill="#eceff1" d="M 240.96875 308.789062 C 240.96875 315.785156 246.671875 321.476562 253.65625 321.476562 C 260.65625 321.476562 266.359375 315.789062 266.359375 308.789062 C 266.359375 301.789062 260.65625 296.097656 253.65625 296.097656 C 246.671875 296.097656 240.96875 301.789062 240.96875 308.789062 Z M 240.96875 308.789062 " fill-opacity="1" fill-rule="evenodd"/><path fill="#eceff1" d="M 355.710938 317.671875 C 348.714844 317.671875 343.023438 323.375 343.023438 330.359375 C 343.023438 337.355469 348.710938 343.046875 355.710938 343.046875 C 362.695312 343.046875 368.398438 337.359375 368.398438 330.359375 C 368.398438 323.371094 362.695312 317.671875 355.710938 317.671875 Z M 355.710938 317.671875 " fill-opacity="1" fill-rule="evenodd"/><path fill="#eceff1" d="M 429.386719 365.148438 C 422.386719 365.148438 416.695312 370.851562 416.695312 377.851562 C 416.699219 384.835938 422.386719 390.539062 429.382812 390.539062 C 436.386719 390.539062 442.074219 384.835938 442.074219 377.851562 C 442.074219 370.851562 436.382812 365.152344 429.386719 365.148438 Z M 429.386719 365.148438 " fill-opacity="1" fill-rule="evenodd"/><path fill="#ffcc80" d="M 400.910156 614.433594 L 146.773438 614.433594 C 132.089844 614.433594 120.136719 626.386719 120.136719 641.078125 L 120.140625 708.136719 C 120.140625 722.832031 132.089844 734.769531 146.769531 734.769531 L 452.824219 734.769531 C 467.519531 734.769531 479.46875 722.832031 479.46875 708.136719 L 479.46875 641.078125 C 479.46875 626.382812 467.519531 614.433594 452.824219 614.433594 Z M 309.0625 652.59375 C 309.0625 648.976562 311.996094 646.046875 315.609375 646.046875 L 435.140625 646.046875 C 438.757812 646.046875 441.691406 648.980469 441.691406 652.59375 C 441.691406 656.222656 438.757812 659.144531 435.140625 659.144531 L 315.613281 659.144531 C 311.996094 659.144531 309.0625 656.222656 309.0625 652.59375 Z M 315.609375 690.0625 L 435.140625 690.058594 C 438.757812 690.058594 441.691406 692.996094 441.691406 696.609375 C 441.691406 700.222656 438.757812 703.160156 435.140625 703.15625 L 315.613281 703.15625 C 311.996094 703.15625 309.0625 700.226562 309.0625 696.609375 C 309.0625 692.992188 311.996094 690.0625 315.609375 690.0625 Z M 253.21875 646.375 C 268.800781 646.375 281.460938 659.035156 281.460938 674.601562 C 281.460938 690.183594 268.800781 702.84375 253.21875 702.84375 C 237.652344 702.84375 224.988281 690.183594 224.988281 674.601562 C 224.992188 659.035156 237.652344 646.375 253.21875 646.375 Z M 177.671875 646.375 C 193.242188 646.375 205.914062 659.035156 205.914062 674.601562 C 205.914062 690.183594 193.242188 702.84375 177.671875 702.84375 C 162.105469 702.84375 149.429688 690.183594 149.429688 674.601562 C 149.429688 659.035156 162.105469 646.375 177.671875 646.375 Z M 177.671875 646.375 " fill-opacity="1" fill-rule="evenodd"/><path fill="#e6b873" d="M 268.363281 674.601562 C 268.367188 666.253906 261.570312 659.472656 253.21875 659.46875 C 244.871094 659.46875 238.089844 666.253906 238.089844 674.601562 C 238.089844 682.953125 244.871094 689.746094 253.21875 689.746094 C 261.570312 689.746094 268.363281 682.953125 268.363281 674.601562 Z M 268.363281 674.601562 " fill-opacity="1" fill-rule="evenodd"/><path fill="#e6b873" d="M 192.820312 674.601562 C 192.820312 666.253906 186.023438 659.472656 177.675781 659.46875 C 169.324219 659.46875 162.53125 666.253906 162.53125 674.601562 C 162.53125 682.953125 169.324219 689.746094 177.675781 689.746094 C 186.023438 689.746094 192.820312 682.953125 192.820312 674.601562 Z M 192.820312 674.601562 " fill-opacity="1" fill-rule="evenodd"/><path fill="#95c196" d="M 166.773438 504.710938 C 166.773438 513.058594 173.566406 519.855469 181.917969 519.855469 C 190.269531 519.851562 197.046875 513.058594 197.046875 504.710938 C 197.046875 496.359375 190.265625 489.566406 181.921875 489.566406 C 173.570312 489.566406 166.773438 496.359375 166.773438 504.710938 Z M 166.773438 504.710938 " fill-opacity="1" fill-rule="evenodd"/><path fill="#95c196" d="M 257.460938 489.566406 C 249.113281 489.566406 242.316406 496.359375 242.316406 504.710938 C 242.320312 513.058594 249.113281 519.855469 257.460938 519.855469 C 265.8125 519.855469 272.605469 513.0625 272.605469 504.710938 C 272.609375 496.359375 265.8125 489.566406 257.460938 489.566406 Z M 257.460938 489.566406 " fill-opacity="1" fill-rule="evenodd"/><path fill="#a5d6a7" d="M 229.21875 504.710938 C 229.222656 489.140625 241.894531 476.46875 257.460938 476.46875 C 273.03125 476.464844 285.703125 489.140625 285.703125 504.710938 C 285.703125 520.277344 273.03125 532.953125 257.460938 532.949219 C 241.894531 532.949219 229.21875 520.277344 229.21875 504.710938 Z M 277.945312 444.539062 L 146.773438 444.539062 C 132.089844 444.539062 120.140625 456.492188 120.140625 471.171875 L 120.140625 538.246094 C 120.140625 552.925781 132.089844 564.878906 146.773438 564.878906 L 400.910156 564.878906 L 452.824219 564.875 C 467.519531 564.875 479.472656 552.925781 479.472656 538.246094 L 479.472656 471.171875 C 479.472656 456.492188 467.519531 444.539062 452.824219 444.539062 Z M 181.917969 476.46875 C 197.488281 476.464844 210.144531 489.140625 210.144531 504.710938 C 210.148438 520.277344 197.484375 532.953125 181.921875 532.949219 C 166.339844 532.949219 153.675781 520.277344 153.675781 504.710938 C 153.679688 489.140625 166.335938 476.46875 181.917969 476.46875 Z M 319.855469 520.167969 L 439.375 520.164062 C 443.003906 520.164062 445.921875 523.101562 445.921875 526.714844 C 445.925781 530.332031 443.003906 533.265625 439.375 533.265625 L 319.855469 533.265625 C 316.238281 533.265625 313.304688 530.332031 313.304688 526.714844 C 313.308594 523.101562 316.238281 520.167969 319.855469 520.167969 Z M 313.304688 482.703125 C 313.308594 479.085938 316.238281 476.152344 319.855469 476.152344 L 439.375 476.152344 C 443.003906 476.152344 445.921875 479.085938 445.921875 482.703125 C 445.925781 486.316406 443.003906 489.25 439.375 489.25 L 319.855469 489.25 C 316.238281 489.25 313.304688 486.316406 313.304688 482.703125 Z M 313.304688 482.703125 " fill-opacity="1" fill-rule="evenodd"/></svg>