<svg xmlns="http://www.w3.org/2000/svg" xmlns:xlink="http://www.w3.org/1999/xlink" width="800" zoomAndPan="magnify" viewBox="0 0 600 899.99999" height="1200" preserveAspectRatio="xMidYMid meet" version="1.0"><rect x="-60" width="720" fill="#ffffff" y="-89.999999" height="1079.999988" fill-opacity="1"/><rect x="-60" width="720" fill="#ffffff" y="-89.999999" height="1079.999988" fill-opacity="1"/><path fill="#abb3bd" d="M 480 640 C 480 640 430 630 420 580 L 420 570 L 280 570 L 280 580 C 270 630 220 640 220 640 L 220 650 L 480 650 L 480 640 " fill-opacity="1" fill-rule="nonzero"/><path fill="#c5cad2" d="M 590 520 L 590 550 C 590 566.601562 576.601562 580 560 580 L 183.476562 580 L 168.789062 520 L 170 510 L 580 510 L 590 520 " fill-opacity="1" fill-rule="nonzero"/><path fill="#414345" d="M 590 190 L 590 520 L 168.789062 520 L 110 280.507812 L 110 190 C 110 173.398438 123.398438 160 140 160 L 560 160 C 576.601562 160 590 173.398438 590 190 " fill-opacity="1" fill-rule="nonzero"/><path fill="#565a5b" d="M 150 280 L 150 210 C 150 204.492188 154.492188 200 160 200 L 540 200 C 545.507812 200 550 204.492188 550 210 L 550 470 C 550 475.507812 545.507812 480 540 480 L 210 480 L 150 280 " fill-opacity="1" fill-rule="nonzero"/><path fill="#c5cad2" d="M 213.476562 640 L 510 640 C 515.507812 640 520 644.492188 520 650 C 520 658.320312 516.601562 665.820312 511.210938 671.210938 C 505.820312 676.601562 498.320312 680 490 680 L 256.601562 680 " fill-opacity="1" fill-rule="nonzero"/><path fill="#6f5849" d="M 270 380 L 270 430 L 190 510 L 90 510 L 10 430 L 10 380 C 10 324.804688 54.804688 280 110 280 L 205.820312 280 C 216.601562 280 222.695312 291.210938 218.710938 300 C 218.085938 301.523438 217.109375 302.890625 215.820312 304.179688 L 200 320 L 210 320 C 243.085938 320 270 346.914062 270 380 " fill-opacity="1" fill-rule="nonzero"/><path fill="#dba880" d="M 170 570 L 170 640 L 110 640 L 110 570 L 170 570 " fill-opacity="1" fill-rule="nonzero"/><path fill="#e9b990" d="M 54.6875 448.828125 C 90.351562 517.03125 189.648438 517.03125 225.3125 448.828125 C 228.359375 443.007812 229.960938 436.484375 230 429.882812 C 230.078125 418.90625 238.984375 410 250 410 C 261.054688 410 270 418.945312 270 430 L 270 460 C 270 476.5625 256.5625 490 240 490 C 240 545.234375 195.234375 590 140 590 C 84.765625 590 40 545.234375 40 490 C 23.4375 490 10 476.5625 10 460 L 10 430 C 10 418.945312 18.945312 410 30 410 C 41.015625 410 49.921875 418.90625 50 429.882812 C 50.039062 436.484375 51.679688 443.007812 54.6875 448.828125 " fill-opacity="1" fill-rule="nonzero"/><path fill="#5c8fd2" d="M 170 629.960938 C 225.234375 629.960938 270 674.765625 270 730 C 270 735.507812 265.507812 740 260 740 L 20 740 C 14.492188 740 10 735.507812 10 730 C 10 674.765625 54.765625 629.960938 110 629.960938 L 170 629.960938 " fill-opacity="1" fill-rule="nonzero"/><path fill="#2b2c2d" d="M 560 570 L 215.351562 570 C 227.148438 558.90625 236.445312 545.3125 242.421875 530 L 580 530 L 580 550 C 580 561.015625 571.015625 570 560 570 Z M 438.515625 630 L 261.484375 630 C 272.226562 620.976562 282.34375 608.164062 287.734375 590 L 412.265625 590 C 417.65625 608.164062 427.773438 620.976562 438.515625 630 Z M 504.140625 664.140625 C 500.351562 667.929688 495.3125 670 490 670 L 262.109375 670 C 257.304688 662.65625 251.640625 655.976562 245.3125 650 L 510 650 C 510 655.3125 507.929688 660.351562 504.140625 664.140625 Z M 20 730 C 20 680.351562 60.390625 639.960938 110 639.960938 L 170 639.960938 C 219.648438 639.960938 260 680.351562 260 730 Z M 140 600 C 146.835938 600 153.515625 599.335938 160 598.125 L 160 619.960938 L 120 619.960938 L 120 598.125 C 126.484375 599.335938 133.164062 600 140 600 Z M 218.90625 630 L 215.625 630 C 204.570312 624.921875 192.617188 621.601562 180 620.46875 L 180 592.421875 C 181.875 591.679688 183.710938 590.859375 185.546875 590 L 266.5625 590 C 254.414062 619.960938 224.53125 628.632812 218.90625 630 Z M 50 490 C 50 484.492188 45.507812 480 40 480 C 28.984375 480 20 471.015625 20 460 L 20 430 C 20 424.492188 24.492188 420 30 420 C 35.507812 420 39.960938 424.453125 40 429.960938 C 40.039062 438.085938 42.070312 446.210938 45.820312 453.476562 C 64.0625 488.320312 100.15625 509.960938 140 509.960938 C 179.84375 509.960938 215.9375 488.320312 234.140625 453.476562 C 237.929688 446.210938 239.960938 438.085938 240 429.960938 C 240.039062 424.453125 244.53125 420 250 420 C 255.507812 420 260 424.492188 260 430 L 260 460 C 260 471.015625 251.015625 480 240 480 C 234.492188 480 230 484.492188 230 490 C 230 539.648438 189.648438 580 140 580 C 90.390625 580 50 539.648438 50 490 Z M 110 290 L 205.78125 290 C 208.203125 290 209.21875 291.601562 209.648438 292.578125 C 210.039062 293.515625 210.429688 295.390625 208.75 297.109375 L 195.859375 310 L 160 310 C 154.492188 310 150 314.492188 150 320 C 150 325.507812 154.492188 330 160 330 L 210 330 C 237.578125 330 260 352.421875 260 380 L 260 401.835938 C 256.835938 400.742188 253.515625 400 250 400 C 233.554688 400 220.078125 413.398438 220 429.84375 C 219.960938 434.804688 218.75 439.765625 216.445312 444.21875 C 201.445312 472.851562 172.890625 489.960938 140 489.960938 C 107.109375 489.960938 78.554688 472.851562 63.554688 444.21875 C 61.25 439.765625 60 434.804688 60 429.84375 C 59.921875 413.398438 46.445312 400 30 400 C 26.484375 400 23.125 400.742188 20 401.835938 L 20 380 C 20 330.351562 60.390625 290 110 290 Z M 160 210 L 540 210 L 540 470 L 278.59375 470 C 279.414062 466.796875 280 463.476562 280 460 L 280 380 C 280 345.820312 255.390625 317.265625 222.929688 311.210938 C 229.804688 304.257812 231.875 293.984375 228.125 284.921875 C 224.375 275.859375 215.585938 270 205.78125 270 L 160 270 Z M 560 150 L 140 150 C 117.929688 150 100 167.929688 100 190 L 100 240 C 100 245.507812 104.492188 250 110 250 C 115.507812 250 120 245.507812 120 240 L 120 190 C 120 178.984375 128.984375 170 140 170 L 560 170 C 571.015625 170 580 178.984375 580 190 L 580 510 L 248.164062 510 C 248.828125 506.328125 249.335938 502.617188 249.648438 498.828125 C 255.9375 497.265625 261.640625 494.140625 266.367188 490 L 540 490 C 551.015625 490 560 481.015625 560 470 L 560 210 C 560 198.984375 551.015625 190 540 190 L 160 190 C 148.984375 190 140 198.984375 140 210 L 140 270 L 110 270 C 49.335938 270 0 319.335938 0 380 L 0 460 C 0 478.710938 12.929688 494.492188 30.351562 498.828125 C 33.75 541.5625 61.679688 577.421875 100 592.421875 L 100 620.46875 C 44.023438 625.546875 0 672.695312 0 730 C 0 741.015625 8.984375 750 20 750 L 260 750 C 271.015625 750 280 741.015625 280 730 C 280 715.859375 277.226562 702.421875 272.34375 690 L 590 690 C 595.507812 690 600 685.507812 600 680 C 600 674.492188 595.507812 670 590 670 L 524.453125 670 C 527.96875 663.945312 530 657.148438 530 650 C 530 638.984375 521.015625 630 510 630 L 481.132812 630 C 475.9375 628.710938 445.703125 620 433.476562 590 L 560 590 C 582.070312 590 600 572.070312 600 550 L 600 190 C 600 167.929688 582.070312 150 560 150 " fill-opacity="1" fill-rule="nonzero"/><path fill="#2b2c2d" d="M 210 240 C 210 234.492188 205.507812 230 200 230 L 190 230 C 184.492188 230 180 234.492188 180 240 C 180 245.507812 184.492188 250 190 250 L 200 250 C 205.507812 250 210 245.507812 210 240 " fill-opacity="1" fill-rule="nonzero"/><path fill="#2b2c2d" d="M 240 250 L 390 250 C 395.507812 250 400 245.507812 400 240 C 400 234.492188 395.507812 230 390 230 L 240 230 C 234.492188 230 230 234.492188 230 240 C 230 245.507812 234.492188 250 240 250 " fill-opacity="1" fill-rule="nonzero"/><path fill="#2b2c2d" d="M 430 250 L 460 250 C 465.507812 250 470 245.507812 470 240 C 470 234.492188 465.507812 230 460 230 L 430 230 C 424.492188 230 420 234.492188 420 240 C 420 245.507812 424.492188 250 430 250 " fill-opacity="1" fill-rule="nonzero"/><path fill="#2b2c2d" d="M 390 430 L 310 430 C 304.492188 430 300 434.492188 300 440 C 300 445.507812 304.492188 450 310 450 L 390 450 C 395.507812 450 400 445.507812 400 440 C 400 434.492188 395.507812 430 390 430 " fill-opacity="1" fill-rule="nonzero"/><path fill="#2b2c2d" d="M 430 450 L 460 450 C 465.507812 450 470 445.507812 470 440 C 470 434.492188 465.507812 430 460 430 L 430 430 C 424.492188 430 420 434.492188 420 440 C 420 445.507812 424.492188 450 430 450 " fill-opacity="1" fill-rule="nonzero"/><path fill="#2b2c2d" d="M 340 280 C 340 274.492188 335.507812 270 330 270 L 260 270 C 254.492188 270 250 274.492188 250 280 C 250 285.507812 254.492188 290 260 290 L 330 290 C 335.507812 290 340 285.507812 340 280 " fill-opacity="1" fill-rule="nonzero"/><path fill="#2b2c2d" d="M 340 320 C 340 314.492188 335.507812 310 330 310 L 290 310 C 284.492188 310 280 314.492188 280 320 C 280 325.507812 284.492188 330 290 330 L 330 330 C 335.507812 330 340 325.507812 340 320 " fill-opacity="1" fill-rule="nonzero"/><path fill="#2b2c2d" d="M 370 270 C 364.492188 270 360 274.492188 360 280 C 360 285.507812 364.492188 290 370 290 L 400 290 C 405.507812 290 410 285.507812 410 280 C 410 274.492188 405.507812 270 400 270 L 370 270 " fill-opacity="1" fill-rule="nonzero"/><path fill="#2b2c2d" d="M 310 410 L 350 410 C 355.507812 410 360 405.507812 360 400 C 360 394.492188 355.507812 390 350 390 L 310 390 C 304.492188 390 300 394.492188 300 400 C 300 405.507812 304.492188 410 310 410 " fill-opacity="1" fill-rule="nonzero"/><path fill="#2b2c2d" d="M 400 350 L 310 350 C 304.492188 350 300 354.492188 300 360 C 300 365.507812 304.492188 370 310 370 L 400 370 C 405.507812 370 410 365.507812 410 360 C 410 354.492188 405.507812 350 400 350 " fill-opacity="1" fill-rule="nonzero"/><path fill="#2b2c2d" d="M 440 350 C 434.492188 350 430 354.492188 430 360 C 430 365.507812 434.492188 370 440 370 L 450 370 C 455.507812 370 460 365.507812 460 360 C 460 354.492188 455.507812 350 450 350 L 440 350 " fill-opacity="1" fill-rule="nonzero"/></svg>