<svg xmlns="http://www.w3.org/2000/svg" xmlns:xlink="http://www.w3.org/1999/xlink" width="800" zoomAndPan="magnify" viewBox="0 0 600 899.99999" height="1200" preserveAspectRatio="xMidYMid meet" version="1.0"><defs><clipPath id="ce983663a9"><path d="M 197 159.375 L 600 159.375 L 600 563 L 197 563 Z M 197 159.375 " clip-rule="nonzero"/></clipPath></defs><rect x="-60" width="720" fill="#ffffff" y="-89.999999" height="1079.999988" fill-opacity="1"/><rect x="-60" width="720" fill="#ffffff" y="-89.999999" height="1079.999988" fill-opacity="1"/><rect x="-60" width="720" fill="#ffffff" y="-89.999999" height="1079.999988" fill-opacity="1"/><path fill="#f6dccd" d="M 44.253906 552.164062 L 165.726562 519.417969 C 188.523438 513.273438 210.761719 510.542969 230.566406 523.390625 C 252.648438 537.714844 287.628906 565.136719 325.953125 583.1875 C 339.601562 592.039062 344.910156 609.503906 336.777344 623.59375 C 328.640625 637.683594 313.71875 642.074219 296.371094 634.421875 L 309.847656 640.449219 C 325.289062 647.351562 340.695312 649.113281 357.015625 644.675781 L 473.886719 612.878906 C 564.734375 588.167969 557.410156 661.671875 526.972656 670.757812 L 313.242188 734.566406 C 293.585938 740.433594 274.472656 737.910156 256.707031 727.652344 L 133.191406 656.339844 L 76.285156 671.585938 C 65.34375 674.515625 54.027344 667.984375 51.097656 657.042969 L 29.742188 577.34375 C 26.8125 566.410156 33.328125 555.109375 44.253906 552.164062 Z M 44.253906 552.164062 " fill-opacity="1" fill-rule="evenodd"/><path fill="#f1cbbc" d="M 332.691406 629.246094 C 324.128906 638.722656 311.125 640.929688 296.371094 634.421875 C 276.117188 622.816406 255.929688 611.074219 235.714844 599.402344 C 230.296875 596.277344 228.441406 589.351562 231.570312 583.9375 C 234.695312 578.523438 241.621094 576.667969 247.035156 579.792969 Z M 332.691406 629.246094 " fill-opacity="1" fill-rule="evenodd"/><path fill="#f1cbbc" d="M 44.253906 552.164062 L 165.726562 519.417969 C 188.523438 513.273438 210.761719 510.542969 230.566406 523.390625 C 242.378906 531.054688 257.886719 542.464844 275.621094 554.1875 L 40.421875 617.207031 L 29.738281 577.34375 C 26.8125 566.410156 33.328125 555.109375 44.253906 552.164062 Z M 44.253906 552.164062 " fill-opacity="1" fill-rule="evenodd"/><path fill="#d1d1d6" d="M 64.582031 525.132812 L 108.492188 694.824219 C 110.617188 703.027344 105.640625 711.476562 97.433594 713.601562 L 64.769531 722.054688 C 56.5625 724.175781 48.113281 719.203125 45.988281 710.996094 L 2.082031 541.304688 C -0.0429688 533.101562 4.933594 524.652344 13.140625 522.527344 L 45.804688 514.074219 C 54.011719 511.949219 62.460938 516.925781 64.582031 525.132812 Z M 64.582031 525.132812 " fill-opacity="1" fill-rule="evenodd"/><path fill="#b1b1b5" d="M 81.316406 638.121094 L 89.089844 668.15625 L 96.773438 697.855469 C 98.894531 706.042969 93.941406 714.472656 85.765625 716.621094 L 97.4375 713.597656 C 105.640625 711.476562 110.617188 703.023438 108.496094 694.820312 L 100.78125 665.019531 L 85.296875 605.183594 L 69.796875 545.277344 L 64.582031 525.132812 C 62.742188 518.027344 56.15625 513.339844 49.09375 513.597656 L 58.117188 548.476562 L 73.601562 608.3125 L 81.316406 638.113281 Z M 81.316406 638.121094 " fill-opacity="1" fill-rule="evenodd"/><path fill="#685e68" d="M 38.664062 538.703125 C 32.914062 538.03125 27.707031 542.144531 27.03125 547.898438 C 26.359375 553.648438 30.472656 558.855469 36.226562 559.53125 C 41.976562 560.203125 47.183594 556.089844 47.859375 550.335938 C 48.53125 544.585938 44.417969 539.378906 38.664062 538.703125 Z M 38.664062 538.703125 " fill-opacity="1" fill-rule="evenodd"/><g clip-path="url(#ce983663a9)"><path fill="#a79ba7" d="M 398.71875 179.25 C 393.300781 179.25 388.90625 174.855469 388.90625 169.441406 C 388.90625 164.023438 393.300781 159.628906 398.71875 159.628906 C 441.671875 159.628906 481.507812 173.109375 514.222656 196.074219 C 540.757812 214.699219 562.59375 239.597656 577.59375 268.632812 L 578.015625 266.195312 C 578.925781 260.863281 583.988281 257.277344 589.320312 258.1875 C 594.652344 259.097656 598.238281 264.15625 597.328125 269.492188 L 591.136719 305.300781 C 590.226562 310.632812 585.167969 314.21875 579.832031 313.308594 C 578.429688 313.070312 577.144531 312.542969 576.035156 311.800781 L 548.414062 294.5625 C 543.820312 291.703125 542.414062 285.664062 545.273438 281.074219 C 548.128906 276.480469 554.167969 275.074219 558.761719 277.929688 L 561.171875 279.4375 C 547.613281 252.472656 527.523438 229.335938 502.957031 212.09375 C 473.476562 191.398438 437.527344 179.25 398.71875 179.25 Z M 303.996094 181.617188 C 298.664062 180.707031 295.078125 175.648438 295.988281 170.3125 C 296.898438 164.980469 301.960938 161.394531 307.292969 162.304688 L 343.101562 168.496094 C 348.433594 169.40625 352.019531 174.46875 351.109375 179.800781 C 350.871094 181.207031 350.34375 182.488281 349.597656 183.597656 L 332.359375 211.222656 C 329.503906 215.8125 323.464844 217.21875 318.871094 214.363281 C 314.28125 211.507812 312.871094 205.46875 315.730469 200.875 L 317.234375 198.464844 C 290.292969 212.011719 267.171875 232.082031 249.941406 256.613281 C 229.21875 286.109375 217.050781 322.078125 217.050781 360.917969 C 217.050781 366.335938 212.660156 370.726562 207.242188 370.726562 C 201.824219 370.726562 197.433594 366.335938 197.433594 360.917969 C 197.433594 317.933594 210.929688 278.074219 233.921875 245.347656 C 252.542969 218.839844 277.425781 197.027344 306.433594 182.039062 Z M 493.4375 540.214844 C 498.769531 541.125 502.355469 546.183594 501.445312 551.519531 C 500.535156 556.851562 495.476562 560.4375 490.140625 559.527344 L 454.332031 553.335938 C 449 552.425781 445.414062 547.363281 446.324219 542.03125 C 446.5625 540.625 447.089844 539.34375 447.835938 538.234375 L 465.070312 510.613281 C 467.929688 506.019531 473.96875 504.613281 478.558594 507.46875 C 483.152344 510.328125 484.558594 516.367188 481.703125 520.957031 L 480.199219 523.367188 C 507.480469 509.65625 530.835938 489.265625 548.121094 464.34375 C 568.460938 435.015625 580.382812 399.375 580.382812 360.917969 C 580.382812 355.5 584.773438 351.105469 590.191406 351.105469 C 595.609375 351.105469 600 355.5 600 360.917969 C 600 403.449219 586.78125 442.921875 564.21875 475.457031 C 545.507812 502.433594 520.363281 524.621094 491.003906 539.796875 Z M 219.417969 455.636719 C 218.507812 460.96875 213.449219 464.554688 208.113281 463.644531 C 202.78125 462.734375 199.195312 457.675781 200.105469 452.339844 L 206.296875 416.53125 C 207.207031 411.199219 212.269531 407.613281 217.601562 408.523438 C 219.007812 408.761719 220.289062 409.289062 221.398438 410.03125 L 249.019531 427.269531 C 253.613281 430.128906 255.019531 436.167969 252.164062 440.757812 C 249.304688 445.351562 243.265625 446.757812 238.675781 443.902344 L 236.269531 442.398438 C 249.714844 469.160156 269.570312 492.140625 293.820312 509.3125 C 323.40625 530.265625 359.59375 542.578125 398.714844 542.578125 C 404.132812 542.578125 408.527344 546.972656 408.527344 552.390625 C 408.527344 557.808594 404.132812 562.199219 398.714844 562.199219 C 355.496094 562.199219 315.414062 548.523438 282.554688 525.253906 C 256.304688 506.667969 234.707031 481.957031 219.835938 453.207031 Z M 219.417969 455.636719 " fill-opacity="1" fill-rule="evenodd"/></g><path fill="#ffe177" d="M 335.15625 308.851562 C 336.753906 315.578125 339.421875 322.003906 343.046875 327.890625 L 337.554688 340.261719 L 352.136719 354.84375 L 364.503906 349.347656 C 370.390625 352.976562 376.820312 355.640625 383.546875 357.242188 L 388.40625 369.863281 L 409.027344 369.863281 L 413.886719 357.238281 C 420.613281 355.636719 427.039062 352.972656 432.925781 349.347656 L 445.296875 354.839844 L 459.878906 340.261719 L 454.386719 327.890625 C 458.011719 322.003906 460.679688 315.578125 462.28125 308.847656 L 474.902344 303.988281 L 474.902344 283.371094 L 462.277344 278.511719 C 460.675781 271.78125 458.007812 265.359375 454.382812 259.472656 L 459.878906 247.101562 L 445.296875 232.519531 L 432.929688 238.011719 C 427.039062 234.386719 420.613281 231.71875 413.882812 230.117188 L 409.027344 217.496094 L 388.40625 217.496094 L 383.546875 230.117188 C 376.816406 231.71875 370.390625 234.386719 364.503906 238.011719 L 352.132812 232.519531 L 337.550781 247.101562 L 343.046875 259.472656 C 339.421875 265.359375 336.753906 271.785156 335.152344 278.511719 L 322.527344 283.371094 L 322.527344 303.992188 Z M 335.15625 308.851562 " fill-opacity="1" fill-rule="evenodd"/><path fill="#ffd064" d="M 440.742188 352.820312 L 445.296875 354.84375 L 459.878906 340.261719 L 454.386719 327.894531 C 458.011719 322.003906 460.679688 315.578125 462.28125 308.851562 L 474.902344 303.992188 L 474.902344 283.371094 L 462.277344 278.511719 C 460.675781 271.785156 458.007812 265.359375 454.382812 259.472656 L 459.878906 247.101562 L 445.296875 232.519531 L 440.742188 234.542969 L 453.300781 247.101562 L 447.804688 259.472656 C 451.429688 265.359375 454.097656 271.785156 455.699219 278.511719 L 468.324219 283.371094 L 468.324219 303.992188 L 455.699219 308.851562 C 454.101562 315.578125 451.433594 322.003906 447.804688 327.894531 L 453.300781 340.261719 Z M 402.449219 369.867188 L 409.027344 369.867188 L 413.886719 357.242188 C 420.613281 355.640625 427.039062 352.972656 432.925781 349.347656 L 429.195312 347.691406 C 423.308594 351.316406 414.035156 355.640625 407.308594 357.242188 Z M 432.929688 238.011719 C 427.042969 234.382812 420.613281 231.71875 413.886719 230.117188 L 409.027344 217.492188 L 402.449219 217.492188 L 407.308594 230.117188 C 414.035156 231.71875 423.3125 236.039062 429.199219 239.667969 Z M 364.507812 238.011719 L 352.136719 232.515625 L 350.113281 234.539062 L 361.65625 239.667969 C 362.59375 239.089844 363.542969 238.539062 364.507812 238.011719 Z M 350.113281 352.820312 L 352.136719 354.84375 L 364.503906 349.347656 C 363.539062 348.820312 362.589844 348.269531 361.652344 347.691406 Z M 350.113281 352.820312 " fill-opacity="1" fill-rule="evenodd"/><path fill="#eceff1" d="M 408.269531 258.867188 C 409.402344 259.183594 410.519531 259.550781 411.617188 259.976562 C 412.71875 260.402344 413.792969 260.878906 414.84375 261.40625 C 415.898438 261.9375 416.921875 262.515625 417.914062 263.148438 C 418.910156 263.777344 419.871094 264.457031 420.800781 265.179688 C 421.730469 265.90625 422.621094 266.671875 423.472656 267.484375 C 424.324219 268.296875 425.136719 269.152344 425.90625 270.042969 C 426.675781 270.933594 427.398438 271.863281 428.074219 272.824219 C 428.753906 273.789062 429.382812 274.78125 429.964844 275.808594 C 430.542969 276.832031 431.074219 277.882812 431.550781 278.960938 C 432.027344 280.035156 432.449219 281.132812 432.820312 282.253906 C 433.1875 283.371094 433.503906 284.503906 433.761719 285.65625 C 434.019531 286.804688 434.21875 287.964844 434.363281 289.132812 C 434.507812 290.300781 434.59375 291.472656 434.621094 292.652344 C 434.648438 293.828125 434.621094 295.003906 434.535156 296.179688 C 434.449219 297.355469 434.304688 298.523438 434.101562 299.683594 C 433.898438 300.84375 433.640625 301.992188 433.328125 303.125 C 433.011719 304.261719 432.644531 305.378906 432.21875 306.476562 C 431.796875 307.574219 431.320312 308.652344 430.789062 309.703125 C 430.257812 310.753906 429.679688 311.777344 429.050781 312.773438 C 428.417969 313.769531 427.742188 314.730469 427.015625 315.660156 C 426.292969 316.585938 425.523438 317.476562 424.710938 318.332031 C 423.898438 319.183594 423.046875 319.996094 422.152344 320.765625 C 421.261719 321.53125 420.335938 322.257812 419.371094 322.933594 C 418.40625 323.613281 417.414062 324.242188 416.390625 324.820312 C 415.363281 325.402344 414.3125 325.929688 413.238281 326.410156 C 412.160156 326.886719 411.0625 327.308594 409.941406 327.679688 C 408.824219 328.046875 407.691406 328.359375 406.542969 328.617188 C 405.390625 328.875 404.234375 329.078125 403.0625 329.222656 C 401.894531 329.363281 400.722656 329.453125 399.542969 329.480469 C 398.367188 329.507812 397.191406 329.480469 396.015625 329.394531 C 394.839844 329.304688 393.675781 329.160156 392.515625 328.960938 C 391.351562 328.757812 390.207031 328.5 389.070312 328.1875 C 387.933594 327.871094 386.816406 327.503906 385.71875 327.078125 C 384.621094 326.652344 383.546875 326.175781 382.492188 325.648438 C 381.441406 325.117188 380.417969 324.539062 379.421875 323.90625 C 378.429688 323.277344 377.464844 322.597656 376.539062 321.875 C 375.609375 321.148438 374.71875 320.382812 373.867188 319.570312 C 373.011719 318.757812 372.203125 317.90625 371.433594 317.011719 C 370.664062 316.121094 369.941406 315.191406 369.261719 314.230469 C 368.582031 313.265625 367.953125 312.273438 367.375 311.246094 C 366.792969 310.222656 366.265625 309.171875 365.789062 308.09375 C 365.3125 307.019531 364.886719 305.921875 364.519531 304.800781 C 364.148438 303.683594 363.835938 302.550781 363.578125 301.398438 C 363.320312 300.25 363.121094 299.089844 362.976562 297.921875 C 362.832031 296.753906 362.746094 295.582031 362.714844 294.402344 C 362.6875 293.226562 362.71875 292.050781 362.804688 290.875 C 362.890625 289.699219 363.035156 288.53125 363.238281 287.371094 C 363.4375 286.210938 363.695312 285.0625 364.011719 283.929688 C 364.324219 282.792969 364.695312 281.675781 365.117188 280.578125 C 365.542969 279.480469 366.019531 278.402344 366.550781 277.351562 C 367.078125 276.300781 367.660156 275.277344 368.289062 274.28125 C 368.917969 273.285156 369.597656 272.324219 370.320312 271.394531 C 371.046875 270.46875 371.816406 269.578125 372.628906 268.722656 C 373.441406 267.871094 374.292969 267.058594 375.183594 266.292969 C 376.078125 265.523438 377.003906 264.796875 377.96875 264.121094 C 378.929688 263.441406 379.925781 262.8125 380.949219 262.234375 C 381.972656 261.652344 383.023438 261.125 384.101562 260.648438 C 385.179688 260.167969 386.277344 259.746094 387.394531 259.378906 C 388.511719 259.007812 389.648438 258.695312 390.796875 258.4375 C 391.945312 258.179688 393.105469 257.976562 394.273438 257.832031 C 395.441406 257.691406 396.617188 257.605469 397.792969 257.574219 C 398.972656 257.546875 400.148438 257.574219 401.320312 257.664062 C 402.496094 257.75 403.664062 257.894531 404.824219 258.09375 C 405.984375 258.296875 407.132812 258.554688 408.269531 258.867188 Z M 408.269531 258.867188 " fill-opacity="1" fill-rule="nonzero"/><path fill="#d1d1d6" d="M 362.753906 293.679688 C 362.753906 273.816406 378.851562 257.714844 398.71875 257.714844 C 399.566406 257.714844 400.402344 257.75 401.234375 257.804688 C 382.546875 259.097656 367.792969 274.664062 367.792969 293.679688 C 367.792969 312.695312 382.546875 328.261719 401.234375 329.554688 C 400.402344 329.609375 399.566406 329.644531 398.71875 329.644531 C 378.851562 329.644531 362.753906 313.542969 362.753906 293.679688 Z M 362.753906 293.679688 " fill-opacity="1" fill-rule="evenodd"/><path fill="#fe646f" d="M 294.390625 387.355469 L 330.046875 387.355469 C 334.09375 387.355469 337.402344 390.664062 337.402344 394.710938 L 337.402344 480.75 C 337.402344 484.796875 334.09375 488.105469 330.046875 488.105469 L 294.390625 488.105469 C 290.34375 488.105469 287.03125 484.796875 287.03125 480.75 L 287.03125 394.710938 C 287.03125 390.664062 290.34375 387.355469 294.390625 387.355469 Z M 294.390625 387.355469 " fill-opacity="1" fill-rule="evenodd"/><path fill="#fd4755" d="M 320.148438 387.355469 L 330.046875 387.355469 C 334.09375 387.355469 337.402344 390.664062 337.402344 394.710938 L 337.402344 480.75 C 337.402344 484.796875 334.09375 488.105469 330.046875 488.105469 L 320.148438 488.105469 C 324.195312 488.105469 327.503906 484.796875 327.503906 480.75 L 327.503906 394.710938 C 327.503906 390.664062 324.195312 387.355469 320.148438 387.355469 Z M 320.148438 387.355469 " fill-opacity="1" fill-rule="evenodd"/><path fill="#6cf5c2" d="M 417.203125 399.617188 L 381.546875 399.617188 C 377.503906 399.617188 374.191406 402.925781 374.191406 406.972656 L 374.191406 493.011719 C 374.191406 497.058594 377.503906 500.367188 381.546875 500.367188 L 417.203125 500.367188 C 421.25 500.367188 424.5625 497.058594 424.5625 493.011719 L 424.5625 406.972656 C 424.5625 402.925781 421.25 399.617188 417.203125 399.617188 Z M 417.203125 399.617188 " fill-opacity="1" fill-rule="evenodd"/><path fill="#00e499" d="M 407.308594 399.617188 L 417.203125 399.617188 C 421.25 399.617188 424.5625 402.925781 424.5625 406.972656 L 424.5625 493.011719 C 424.5625 497.058594 421.25 500.367188 417.203125 500.367188 L 407.308594 500.367188 C 411.355469 500.367188 414.664062 497.058594 414.664062 493.011719 L 414.664062 406.972656 C 414.664062 402.925781 411.355469 399.617188 407.308594 399.617188 Z M 407.308594 399.617188 " fill-opacity="1" fill-rule="evenodd"/><path fill="#8ac9fe" d="M 503.042969 387.355469 L 467.386719 387.355469 C 463.339844 387.355469 460.03125 390.664062 460.03125 394.710938 L 460.03125 480.75 C 460.03125 484.796875 463.339844 488.105469 467.386719 488.105469 L 503.042969 488.105469 C 507.089844 488.105469 510.402344 484.796875 510.402344 480.75 L 510.402344 394.710938 C 510.402344 390.664062 507.089844 387.355469 503.042969 387.355469 Z M 503.042969 387.355469 " fill-opacity="1" fill-rule="evenodd"/><path fill="#60b7ff" d="M 493.148438 387.355469 L 503.042969 387.355469 C 507.089844 387.355469 510.402344 390.664062 510.402344 394.710938 L 510.402344 480.75 C 510.402344 484.796875 507.089844 488.105469 503.042969 488.105469 L 493.148438 488.105469 C 497.195312 488.105469 500.503906 484.796875 500.503906 480.75 L 500.503906 394.710938 C 500.503906 390.664062 497.195312 387.355469 493.148438 387.355469 Z M 493.148438 387.355469 " fill-opacity="1" fill-rule="evenodd"/></svg>